# xmcd CD database file
# Copyright (C) 1997 Ti Kan
# 
# Track frame offsets:
#     150
#     15395
#     30500
#     45187
#     65312
#     87827
#     104337
#     118015
#     133980
#     153465
# 
# Disc length: 2304 seconds
# 
# Revision: 1
# Processed by: cddbd v1.4b41PL1 Copyright (c) Steve Scherf et al.
# Submitted via: DiscPlay 4.0.3
# 
DISCID=7408fe0a
DTITLE=Terri Lynn - Inside A Tear
DYEAR=1900
DGENRE=
TTITLE0=Oklahoma Front Porch Band
TTITLE1=Mama Prays
TTITLE2=Silver Gray And Quiet Days
TTITLE3=Inside A Tear
TTITLE4=My Pearls
TTITLE5=A Little Room To Grow
TTITLE6=Just Married
TTITLE7=Red Ropers
TTITLE8=Beside Still Waters
TTITLE9=He's The One On The White Horse
EXTD=
EXTT0=
EXTT1=
EXTT2=
EXTT3=
EXTT4=
EXTT5=
EXTT6=
EXTT7=
EXTT8=
EXTT9=
PLAYORDER=
